# xmcd
#
# Track frame offsets: 
#        150
#        11653
#        33211
#        50736
#        72893
#        89026
#        114036
#        131911
#        150473
#        172084
#
# Disc length: 2483 seconds
#
# Revision: 1
# Processed by: cddbd v1.5.2PL0 Copyright (c) Steve Scherf et al.
# Submitted via: ExactAudioCopy v1.0b3
#
DISCID=8209b10a
DTITLE=The Sounds - Something to Die For
DYEAR=2011
DGENRE=New Wave
TTITLE0=It's So Easy
TTITLE1=Dance with the Devil
TTITLE2=The No No Song
TTITLE3=Better Off Dead
TTITLE4=Diana
TTITLE5=Something to Die For
TTITLE6=Yeah Yeah Yeah
TTITLE7=Won't Let Them Tear Us Apart
TTITLE8=The Best of Me
TTITLE9=Wish You Were Here
EXTD=
EXTT0=
EXTT1=
EXTT2=
EXTT3=
EXTT4=
EXTT5=
EXTT6=
EXTT7=
EXTT8=
EXTT9=
PLAYORDER=
